/* XPM */
static char *result[] = {
/* columns rows colors chars-per-pixel */
"56 56 186 2 ",
"   c #000000",
".  c #100706",
"X  c #100906",
"o  c #200E0D",
"O  c #20120C",
"+  c #311513",
"@  c #401D19",
"#  c #402118",
"$  c #5F3224",
"%  c #6F372B",
"&  c #612A26",
"*  c #6F4028",
"=  c #78442B",
"-  c #7F4230",
";  c #803932",
":  c #903E38",
">  c #884334",
",  c #904438",
"<  c #985936",
"1  c #A04E3D",
"2  c #9F4141",
"3  c #AF5C42",
"4  c #AF4747",
"5  c #BF6B46",
"6  c #BF7443",
"7  c #C0534C",
"8  c #DF5D5A",
"9  c #DF7354",
"0  c #DF7A52",
"q  c #D5744E",
"w  c #EA7659",
"e  c #FF5C67",
"r  c #FF546B",
"t  c #FF5B6A",
"y  c #EF6160",
"u  c #FE6466",
"i  c #FF6B66",
"p  c #FF6269",
"a  c #FF6A68",
"s  c #FF7364",
"d  c #FF7B63",
"f  c #FE7468",
"g  c #FD7C6A",
"h  c #DF8D4D",
"j  c #EF8358",
"k  c #FF865F",
"l  c #FF8C5E",
"z  c #EF9852",
"x  c #FF945C",
"c  c #FF9C5A",
"v  c #FFA657",
"b  c #FFAD55",
"n  c #FFA359",
"m  c #FEAC5C",
"M  c #FFB454",
"N  c #FFBC53",
"B  c #FEB35C",
"V  c #FEBC5B",
"C  c #FF8261",
"Z  c #FE8B64",
"A  c #FD826D",
"S  c #FD8B6C",
"D  c #FE9363",
"F  c #FE9B63",
"G  c #FD936C",
"H  c #FD9C6B",
"J  c #FD8571",
"K  c #FD8B73",
"L  c #FC8E7C",
"P  c #FD9373",
"I  c #FD9971",
"U  c #FC937B",
"Y  c #FD9D7B",
"T  c #FEA463",
"R  c #FEAC64",
"E  c #FDA46B",
"W  c #FEB363",
"Q  c #FEBA62",
"!  c #FDB468",
"~  c #FEAB7E",
"^  c #FDBB71",
"/  c #FDB37F",
"(  c #FDB572",
")  c #FFC153",
"_  c #FEC059",
"`  c #F4628F",
"'  c #F66D8C",
"]  c #F7748A",
"[  c #F77B8A",
"{  c #F87889",
"}  c #ED6596",
"|  c #E6679C",
" . c #EA669A",
".. c #E4699F",
"X. c #EC699D",
"o. c #F46492",
"O. c #F56A9B",
"+. c #F67199",
"@. c #DD6AA5",
"#. c #D66EAD",
"$. c #DA6DAA",
"%. c #DF71A4",
"&. c #DB70AF",
"*. c #D36FB1",
"=. c #D472B4",
"-. c #DB74B4",
";. c #DE77B9",
":. c #E26AA2",
">. c #EB6DA3",
",. c #E16FAC",
"<. c #F56EA1",
"1. c #EC72AC",
"2. c #E370A8",
"3. c #F673A3",
"4. c #F673AB",
"5. c #E474B3",
"6. c #E577B9",
"7. c #E379BC",
"8. c #EA7BBC",
"9. c #EB76B5",
"0. c #F377B3",
"q. c #F679B4",
"w. c #F37BBA",
"e. c #EA7EC1",
"r. c #E77DC0",
"t. c #F37FC1",
"y. c #F98383",
"u. c #FA8D83",
"i. c #F88787",
"p. c #FC9785",
"a. c #FDA884",
"s. c #FEB480",
"d. c #FDBA87",
"f. c #FCA99E",
"g. c #FDB496",
"h. c #FDB39C",
"j. c #FDBA93",
"k. c #F883AF",
"l. c #FDBAA9",
"z. c #FCBDB5",
"x. c #FDC78F",
"c. c #FEC29D",
"v. c #FECEA3",
"b. c #FEC6AF",
"n. c #FDC7BA",
"m. c #FEDAB5",
"M. c #FEDEBE",
"N. c #FED1B8",
"B. c #ED81C6",
"V. c #ED81C8",
"C. c #F78EC5",
"Z. c #F188C7",
"A. c #EF91CE",
"S. c #F89DCD",
"D. c #F2A1D6",
"F. c #F7A8D7",
"G. c #F6B1DD",
"H. c #F8B8DE",
"J. c #F8A4CF",
"K. c #F5B9E1",
"L. c #FDCFC5",
"P. c #FCC0C4",
"I. c #FED4CB",
"U. c #FED7C5",
"Y. c #FEDBD4",
"T. c #FEE2C7",
"R. c #FEE0D4",
"E. c #FFE8D0",
"W. c #FFE5DC",
"Q. c #FFEADB",
"!. c #F7C1E5",
"~. c #FBCCE7",
"^. c #FAC5E4",
"/. c #FAD4EC",
"(. c #FDDFEF",
"). c #FFE8E4",
"_. c #FFF4ED",
"`. c #FFF1E3",
"'. c #FBE0F2",
"]. c #FDECF6",
"[. c #FDEFF8",
"{. c #FFF9F6",
"}. c #FEF6FB",
"|. c white",
" X c #FFF2F0",
".X c None",
/* pixels */
".X.X.X.X.X.X.X.X.X.X.X.X.X.X.X.X.X.X.X.X.X.X.X|.|.|.|.|.|.|.|.|.|..X.X.X.X.X.X.X.X.X.X.X.X.X.X.X.X.X.X.X.X.X.X.X",
".X.X.X.X.X.X.X.X.X.X.X.X.X.X.X.X.X.X.X|.|.|.|._.E.M.m.m.m.M.E.`.|.|.|.|..X.X.X.X.X.X.X.X.X.X.X.X.X.X.X.X.X.X.X.X",
".X.X.X.X.X.X.X.X.X.X.X.X.X.X.X.X.X|.|.{.U.x.^ Q Q Q Q Q Q Q Q Q ^ x.T._.|.|..X.X.X.X.X.X.X.X.X.X.X.X.X.X.X.X.X.X",
".X.X.X.X.X.X.X.X.X.X.X.X.X.X.X|.|.Q.v.^ Q V Q V _ V _ _ _ _ V V V Q Q ! v._.|.|..X.X.X.X.X.X.X.X.X.X.X.X.X.X.X.X",
".X.X.X.X.X.X.X.X.X.X.X.X.X.X|._.v.! W V V N N ) ) ) ) ) ) ) ) ) N V V V W ! v._.|..X.X.X.X.X.X.X.X.X.X.X.X.X.X.X",
".X.X.X.X.X.X.X.X.X.X.X.X|.|.M.( ! B V V N N ) ) ) ) ) ) ) ) ) ) ) ) N V V V W ( M.|.|..X.X.X.X.X.X.X.X.X.X.X.X.X",
".X.X.X.X.X.X.X.X.X.X.X|.{.v.! W B V N ) N ) N N N ) N ) N N ) ) ) N N N M M B B R v.{.|..X.X.X.X.X.X.X.X.X.X.X.X",
".X.X.X.X.X.X.X.X.X.X|._.d.R m B M M N M M N N N N N N N N N N N N N M ) M N M M W R s._.|..X.X.X.X.X.X.X.X.X.X.X",
".X.X.X.X.X.X.X.X.X|._./ R m B B M M M M M M M M M M M M M M M M M M M M M M M b B B R / _.|..X.X.X.X.X.X.X.X.X.X",
".X.X.X.X.X.X.X.X|.{./ R m B M M M M M M M M M M M M M M M M M M M M M M M M M M b m m R s.{.|..X.X.X.X.X.X.X.X.X",
".X.X.X.X.X.X.X|.|.c.T R m m b b b M b b M M b b M b b b b b M M b b b M b M b b b m m R T j.|.|..X.X.X.X.X.X.X.X",
".X.X.X.X.X.X.X|.N.E T v v b b b b b v b b b b v b b b b b v b b b b b b M v b b b b m v R E b.|..X.X.X.X.X.X.X.X",
".X.X.X.X.X.X|._.E T T v v v b v v v b v v v v v v v v v b b v v v v v v v v b v v v v v T T E Q.|..X.X.X.X.X.X.X",
".X.X.X.X.X.X|.a.T T n v v z h v v z v v v v v v v v v v v z v v v v v c n n n n v n n n n n H j.|.|..X.X.X.X.X.X",
".X.X.X.X.X|.U.T F T c c < X   O h c c v c c v z c c c v c c z v v c c c c n n n n n c n n T F E U.|..X.X.X.X.X.X",
".X.X.X|.|.Q.~ F c c c 6         O x c c c c c c c c c c c c c c c c c c c c c c x c c x c c F F a.|.|..X.X.X.X.X",
".X.X|.{.g.H F F c x c *           q c c x c x x x c x x x c x c x x x c c x x x c c x c c c D F H R.|..X.X.X.X.X",
".X.X|.g.H F D x x x x %           q x x x x x x x x x x x x x x x x x x x x x x x x x x x x D F H g.|..X.X.X.X.X",
".X|.R.I G D D x x x x 5         O x x x x l l x x x l x l x x l x l l x x x l x l x l l x l x D D I {.|..X.X.X.X",
".X|.l.H D D x l k Z l l -     O 0 l l w < 0 l l k l l l l l l l l k l l l l l k l l l l l l l x D H L.|..X.X.X.X",
".X|.a.G Z l k k k k k k k w 0 k l k k $   O 3 k k l k k l k k k k k k k k k k k l k l k k k C Z D G g.|..X.X.X.X",
"|.).G G Z k k k k C k C k k k k k k k #       # > 1 w C k k k k C C k C k C k C k k d k k k k k Z G Y |..X.X.X.X",
"|.R.P D Z k k d k k C d k d k d d k d $               O 9 k d d C % . . > k d C d d k k d k d k Z D P _.|..X.X.X",
"|.n.G S k k d d d d d d d d d d d d d ,                 1 d d d %         > d d d d d d d d d k C S S I.|..X.X.X",
"|.n.P S Z d d d d w s d d d d s d d s w .               9 d s d O         @ d d d d s d d d d g C S S L.|..X.X.X",
"|.I.I S C k d d d s s s s s s s s s s s ,             ; i s s s .         + s s s s s s s s s d d g S l.|..X.X.X",
"|._.U S k d d d s s i s s s s s s f s i f : O     @ 7 s f s s s @         & f s s i s s i s s s s g S l.|..X.X.X",
".X|.h.P Z k d d s s s i u i i i i a i a i i a a i i i s i i i a 8 o     o 8 a i i i i i i i a a s g g S I.|..X.X",
".X|._.p.G S C d d s i i i i i i i a u a a a a a p a a a u a a a a 8 4 2 y a a a i a a i a a a a i f g A U {.|..X",
".X.X|.P.U G S C d d s i i i u u u u p p p p p p p p p p u p p u p p p p p u p p u u p p p p p u a f f A K I.|..X",
".X.X|.~.k.U S S C d s s i u u u p p p p p p p p p p p p p p p p p p p u p t p p p p p e p p p p p a f g J z.|..X",
".X.X{.(.4.3.u.P S C d d s s i u p p p t t p t t t t t t t t t t t t t t t t t t t t t t t t t e p u a g J b.|..X",
".X.X|.[.q.4.O.y.U K S g d d i i u u u e e e e e t t t t r t t r t t t r r r r t t r r r r r t t p p a g J I.|..X",
".X.X.X|.k.4.<.O.] L K K S g s d i i u u u e e e r r r r r r r r r r r r r r r r r r r r r r t r t p f g A (.|..X",
".X.X.X|.J.4.<.O.o.o.] L L S A d s s i i u u u e e e t r r r r r r r r r r r r r r r r r r r r r e p f g K {.|..X",
".X.X.X|.^.q.<.O.o.o.` o.] u.P S S A d s i i u u u e e e e e r t r r r r r r r r r r r r r r r t e u f A p.|..X.X",
".X.X.X|.}.q.4.O.o.o.o.` ` ` ] L K K A A g g s i i i a u u u e e t t e e t e r e e e r e t t t u p i g J f.|..X.X",
".X.X.X.X|.S.4.<.O.o.o.` ` ` ` ` ' y.U L K A A g g s s s i a i i i u y u p p u u u u u u a a u a f g J L I.|..X.X",
".X.X.X.X|.(.q.3.O.O.o.` ` ` ` ` ` ` ` ] y.U L K A A A g g g g f f f f f s s f f f f f s s f s g g J L p._.|..X.X",
".X.X.X.X|.|.C.4.O.O.o.o.` ` ` ` ` ` ` ` ` ` ' ] i.U L L K K J J J J A A A g g A g g A A J A J K L U u.Y.|..X.X.X",
".X.X.X.X.X|.~.q.4.O.O.` ` ` ` ` ` ` ` ` ` ` ` ` ` ` ' ' [ [ y.y.u.L U L L P L L L L U U L u.u.i.f.z.).|.|..X.X.X",
".X.X.X.X.X|.|.S.4.3.O.O.` ` ` ` ` ` ` ` ` ` ` ` ` ` ` } } } | | | | ..@.....%.@.%.$.&.&.,.9.8.A.|.|.|..X.X.X.X.X",
".X.X.X.X.X.X|.(.w.4.3.O.o.` ` ` ` ` ` ` ` ` ` ` } } } }  .| | | ..@.@.@.@.#.#.#.#.&.&.&.5.7.B./.|..X.X.X.X.X.X.X",
".X.X.X.X.X.X.X|.H.q.4.O.O.O.o.` ` ` ` ` ` ` } } } }  .| | ....@.@.@.@.@.#.#.#.*.*.#.#.;.7.e.H.|..X.X.X.X.X.X.X.X",
".X.X.X.X.X.X.X|.|.S.q.4.O.O.o.o.` ` o.o.} } }  .| | ....@.@.@.@.@.#.#.#.*.*.*.=.=.-.-.7.8.A.|.|..X.X.X.X.X.X.X.X",
".X.X.X.X.X.X.X.X|.}.C.q.4.<.O.O.O.o.} } }  .| ......@.@.@.@.$.$.#.#.*.*.=.=.=.=.-.5.7.7.A.[.|..X.X.X.X.X.X.X.X.X",
".X.X.X.X.X.X.X.X.X|.[.C.q.4.O.O.} }  . . .......@.@.@.$.#.#.#.#.*.=.*.*.=.=.=.-.;.6.e.A.[.|..X.X.X.X.X.X.X.X.X.X",
".X.X.X.X.X.X.X.X.X.X|.}.C.q.4.4.<.>.>.| | @...@.@.$.@.#.*.#.*.=.=.=.=.*.=.;.-.;.7.e.A.[.|..X.X.X.X.X.X.X.X.X.X.X",
".X.X.X.X.X.X.X.X.X.X.X|.[.F.w.0.4.1.1.>.:.2.2.@.$.$.$.#.#.=.=.=.=.=.=.=.;.;.;.r.e.D.}.|..X.X.X.X.X.X.X.X.X.X.X.X",
".X.X.X.X.X.X.X.X.X.X.X.X|.|.!.t.w.0.1.1.1.2.,.,.$.$.-.-.&.=.=.=.=.=.;.;.;.r.r.V.K.|.|..X.X.X.X.X.X.X.X.X.X.X.X.X",
".X.X.X.X.X.X.X.X.X.X.X.X.X|.|.[.G.w.8.w.9.9.5.5.5.5.-.-.-.-.-.;.;.;.r.r.r.e.D.].|.|..X.X.X.X.X.X.X.X.X.X.X.X.X.X",
".X.X.X.X.X.X.X.X.X.X.X.X.X.X.X|.|.'.F.B.8.8.8.0.6.9.6.6.6.6.7.7.r.r.r.e.D.'.|.|..X.X.X.X.X.X.X.X.X.X.X.X.X.X.X.X",
".X.X.X.X.X.X.X.X.X.X.X.X.X.X.X.X.X|.|.}.^.D.B.t.e.e.8.e.e.e.e.B.V.D.!.[.|.|.|..X.X.X.X.X.X.X.X.X.X.X.X.X.X.X.X.X",
".X.X.X.X.X.X.X.X.X.X.X.X.X.X.X.X.X.X.X|.|.|.}.'.~.!.G.G.G.!./.'.}.|.|.|..X.X.X.X.X.X.X.X.X.X.X.X.X.X.X.X.X.X.X.X",
".X.X.X.X.X.X.X.X.X.X.X.X.X.X.X.X.X.X.X.X.X.X|.|.|.|.|.|.|.|.|.|.|..X.X.X.X.X.X.X.X.X.X.X.X.X.X.X.X.X.X.X.X.X.X.X",
".X.X.X.X.X.X.X.X.X.X.X.X.X.X.X.X.X.X.X.X.X.X.X.X.X.X.X.X.X.X.X.X.X.X.X.X.X.X.X.X.X.X.X.X.X.X.X.X.X.X.X.X.X.X.X.X"
};
