/* XPM */
static char *result[] = {
/* columns rows colors chars-per-pixel */
"58 58 172 2 ",
"   c #3CC736",
".  c #3CC836",
"X  c #41CD37",
"o  c #43CD3B",
"O  c #46D236",
"+  c #4AD636",
"@  c #4AD439",
"#  c #51DC35",
"$  c #55DD3C",
"%  c #55E036",
"&  c #59E336",
"*  c #5FEA33",
"=  c #5BE43A",
"-  c #61EC35",
";  c #60E73D",
":  c #67F135",
">  c #6EF834",
",  c #6BF437",
"<  c #73FE33",
"1  c #75FC39",
"2  c #79FF3C",
"3  c #56B277",
"4  c #5EB779",
"5  c #5FB879",
"6  c #5AB476",
"7  c #60BA7E",
"8  c #49CC44",
"9  c #54CF4F",
"0  c #56DC41",
"q  c #5ADC46",
"w  c #50D348",
"e  c #58D64F",
"r  c #5DDC4C",
"t  c #55CF50",
"y  c #58D453",
"u  c #5FDC50",
"i  c #5FD55A",
"p  c #62DC54",
"a  c #62D45F",
"s  c #65DC5C",
"d  c #5DE046",
"f  c #66E749",
"g  c #6CEA4F",
"h  c #66EA42",
"j  c #71EE4F",
"k  c #74F643",
"l  c #76FA43",
"z  c #7BFD43",
"x  c #74F24C",
"c  c #7BF74E",
"v  c #7CFB4A",
"b  c #6EEA51",
"n  c #72EC55",
"m  c #73EA5B",
"M  c #7BF354",
"N  c #7EF853",
"B  c #77F15A",
"V  c #6EDF63",
"C  c #67D768",
"Z  c #6CD669",
"A  c #6AD86E",
"S  c #70DF67",
"D  c #72DF6B",
"F  c #68C07E",
"G  c #6DD774",
"H  c #6FD778",
"J  c #76DC74",
"K  c #79DA75",
"L  c #72D77C",
"P  c #77D978",
"I  c #7BDE7C",
"U  c #73D675",
"Y  c #6DE063",
"T  c #73E564",
"R  c #77EA61",
"E  c #79EA65",
"W  c #74E26C",
"Q  c #7CEA6B",
"!  c #77E075",
"~  c #7FEA71",
"^  c #7AE274",
"/  c #81FE4D",
"(  c #84FE53",
")  c #84F75B",
"_  c #85FB5A",
"`  c #88FC5D",
"'  c #87F761",
"]  c #89F765",
"[  c #8CFC64",
"{  c #8CF76B",
"}  c #8FFA6D",
"|  c #91FC6E",
" . c #85EE74",
".. c #8FF771",
"X. c #8BF17C",
"o. c #91F774",
"O. c #94FC74",
"+. c #95F77C",
"@. c #97FC7A",
"#. c #99FC7E",
"$. c #57B582",
"%. c #5DBC8B",
"&. c #5FBF90",
"*. c #65BF81",
"=. c #60BF8C",
"-. c #5FC198",
";. c #6DC482",
":. c #6FCF83",
">. c #66C58E",
",. c #6BCE8E",
"<. c #72C582",
"1. c #75CC84",
"2. c #7BCD84",
"3. c #75D782",
"4. c #7CD485",
"5. c #7CDC83",
"6. c #74D38B",
"7. c #64C494",
"8. c #6BCB93",
"9. c #7FE082",
"0. c #65C8A2",
"q. c #66CBA9",
"w. c #6CCFAE",
"e. c #6ACEA3",
"r. c #6AD0AC",
"t. c #6ED1A3",
"y. c #6CD3B4",
"u. c #6DD3B9",
"i. c #70D6BE",
"p. c #71DAC5",
"a. c #75DDCA",
"s. c #77E0CF",
"d. c #7EE8DC",
"f. c #7BE4D5",
"g. c #82D787",
"h. c #85DC82",
"j. c #85D48C",
"k. c #87DB8A",
"l. c #8ADC8D",
"z. c #89D790",
"x. c #8BDA92",
"c. c #91DE95",
"v. c #89E386",
"b. c #8EEC85",
"n. c #8CE48A",
"m. c #92EB86",
"M. c #92E18E",
"N. c #92EA8D",
"B. c #96F187",
"V. c #99F783",
"C. c #9CFB84",
"Z. c #95F288",
"A. c #9AF589",
"S. c #9EFA8B",
"D. c #93E594",
"F. c #95ED90",
"G. c #9BEF94",
"H. c #9DE39A",
"J. c #9CF194",
"K. c #A2F695",
"L. c #A4FA95",
"P. c #A9E7A7",
"I. c #B6EAB4",
"U. c #80EADD",
"Y. c #C2EDC0",
"T. c #CEF1CD",
"R. c #DAF5DA",
"E. c #E5F7E4",
"W. c #E6F8E5",
"Q. c #F3FBF2",
"!. c #FEFFFE",
"~. c None",
/* pixels */
"~.~.~.~.~.~.~.~.~.~.~.~.~.~.~.~.< < < < < < < < < < < < < < < < < < < < < < < < < ~.~.~.~.~.~.~.~.~.~.~.~.~.~.~.~.~.",
"~.~.~.~.~.~.~.~.~.~.~.~.1 < < < < < < < < < < < < < < < < < < < < < < < < < < < < < < < ~.~.~.~.~.~.~.~.~.~.~.~.~.~.",
"~.~.~.~.~.~.~.~.~.~.1 < < < < , * % # # # # # # # # # # # # # # # # # # # # # & - > < < < < ~.~.~.~.~.~.~.~.~.~.~.~.",
"~.~.~.~.~.~.~.~.~.< < 1 : % X . . . . . . . . . . . . .         . . . . . . . . .   O - > 1 1 1 ~.~.~.~.~.~.~.~.~.~.",
"~.~.~.~.~.~.~.1 1 < 1 + . . . . . . . . . . . . . . . .   . . . . . . . . . . . . . . . . & 1 1 1 ~.~.~.~.~.~.~.~.~.",
"~.~.~.~.~.~.l 2 2 = X   . . . . . . . . . . . . . . . .     . . . . . . . . . . . . . . . . O , 2 2 ~.~.~.~.~.~.~.~.",
"~.~.~.~.~.l 2 2 $ . . . . . . . . . . . . . . . . . . . . . . . . . . . . . . . . . . . . . . . = 2 2 ~.~.~.~.~.~.~.",
"~.~.~.~.k z z @ . . . . . . . . . . . . . . . . . . . . . . . . . . . . . . . . . . . . . . . . . = 2 z ~.~.~.~.~.~.",
"~.~.~.~.z z = . . . . . . . . . . . . . . . . . . . . . . . . . . . . . . . . . . . . . . . . . . . ; z z ~.~.~.~.~.",
"~.~.~.c z =     . . . . . . . . . . . . . . . . . . . . . . . . . . . . . . . . . . . . . . . . . . . k z M ~.~.~.~.",
"~.~.x z l . . . . . . . . . . . . . . . . . . . . . . . . . . . . . . . . . . . . . . . . . . . . . . @ z v ~.~.~.~.",
"~.~.c / $ . . . . . . . . . . . . . . . . . . . . . . . . . . . . . . . . . . . . . . . . . . . . . . . h / B ~.~.~.",
"~.m / c . . . . . . . . . . . . . . . . . . . . . . . . . . . . . . . . . . . . . . . . . . . . . . . . O / v ~.~.~.",
"~.n / $ . . . . . . . . . . . . . . . . . . . . . . . . . . . . . . . . . . . . . . . . . . . . . . . .   x N E ~.~.",
"~.M ( o . . . . . . . . . . . . . . . . . . . . . . . . . . . . . . . . . . . . . . . . . . . . . . . . . 0 ( m ~.~.",
"~.( x . . . . . . . . . . . . . . . . . . . . . . . . . . . . . . . . . . . . . . . . . . . . . . . . . . . ( M ~.~.",
"V ( f . . . . . . . . . . . . . . . . . . . . . . . . . . . . . . . . . . . . . . . . . . . . . . . . . . . N M ~.~.",
"V _ d . . . . . . . . . . . . . . . . . . . . . . . . . . . . . . . . . . . . . . . . . . . . . . . . . . . n N A ~.",
"V _ q . . . . . . . . . . . . . . . . . . . . . . . . . . . . . . . . . . . . . . . . . . . . . . . . . . . g ) C ~.",
"V ` q . . . . . . . . . . . . . . . . . . . . . . . . . . . . . . . . . . . . . . . . . . . . . . . . . . . b ) C ~.",
"S [ q   . . . . . . . . . . . . . . . . . . . . . . . . . . . . . . . .         . . . . . . . . . . . . . . b ' A ~.",
"S [ q . . . . . . . . . . . . . . . . . . . . . . . . . . . . . . . . .         . . . . . . . . . . . . . . b ' A ~.",
"W [ r . . . . . . . . . . . . . . . . . . . . . . . . . . . . . . .             . . . . . . . . . . . .   . n ' A ~.",
"S } q . . . . . . . . . . . . . . . . . . . . . . . . . . . . .         X       . . . . . . . . . . . .     n ] G ~.",
"J } r . . . . . . . . . . . . . K I.I.I.I.I.h.9 I.I.h.    I.I.h.8 I.I.9 P.I.I.I.I.I.I.K . . . . . . . . . . m { G ~.",
"W } r . . . . . . . . . . . . . c.!.!.!.!.!.I.. P.!.Q.o h.!.!.9 9 !.!.Z E.!.!.!.!.!.!.H.. . . . . . . . . . m { G ~.",
"! | r . . . . . . . . . . . . . H.!.R.Z Z Z 9 . o Q.!.I.W.!.H.  9 !.!.Z Z Z c.!.!.Z Z 9 . . . . . . . . . . m } G ~.",
"W O.r . . . . . . . . . . . . . H.!.E.g.g. .9 . . M.!.!.!.W.9 . 9 !.!.Z     h.!.!.. . . . . . . . . . . .   m ..H ~.",
"! O.r . . . . . . . . . . . . . H.!.!.!.!.!.h..     R.!.!.M.. . t !.!.Z     g.!.!.. . . . . . . . . . . . . R ..H ~.",
"K @.u . . . . . . . . . . . . . H.!.W.I.I.I.Z . . K !.!.!.R.. . t !.!.Z      .!.!.. . . . . . . . . . . . . R o.H ~.",
"! #.r . . . . . . . . . . . . . H.!.T.  . . . . . W.!.Y.Q.!.M.  t !.!.Z     g.!.!.. . . . . . . . . . . . . R +.L ~.",
"! #.p . . . . . . . . . . . .   H.!.!.!.!.!.I.. H.!.!.9 H.!.Q.9 t !.!.Z      .!.!.. . . . . . . . . . . . . R +.L ~.",
"^ C.p . . . . . . . . . . . . . M.W.W.W.E.E.P.8 E.E.H.. 8 R.E.I.e E.E.Z . . P W.E.. . . . . . . . . . . . . E +.L ~.",
"5.C.p . . . . . . . . . . . . . . .     . . . . . . . . . . . .     .   . . . . . . . . . . . . . . . . . . Q +.3.~.",
"^ C.p . . . . . . . . . . . . . . . . . . . . . . . . . . . . . . . . . . . . . . . . . . . . . . . . . . . Q V.3.~.",
"v.C.p . . . . . . . . . . . . . . . . . . . . . . . . . . . . . . . . . . . . . . . . . . . . . . . . . . . Q V.3.~.",
"9.S.u . . . . . . . . . . . . . . . . . . . . . . . . . . . . . . . . . . . . . . . . . . . . . . . . . . . Q S.3.~.",
"5.S.s . . . . . . . . . . . . . . . . . . . . . . . . . . . . . . . . . . . . . . . . . . . . . . . . . . . Q V.3.~.",
"6.S.u . . . . . . . . . . . . . . . . . . . . . . . . . . . . . . . . . . . . . . . . . . . . . . . . . . .  .Z.:.~.",
"6.A.T . . . . . . . . . . . . . . . . . . . . . . . . . . . . . . . . . . . . . . . . . . . . . . . . . . . X.N.,.~.",
",.b.~ . . . . . . . . . . . . . . . . . . . . . . . . . . . . . . . . . . . . . . . . . . . . . . . . . . . S.n.~.~.",
"~.v.A.. . . . . . . . . . . . . . . . . . . . . . . . . . . . . . . . . . . . . . . . . . . . . . . . . . w L.4.~.~.",
"~.6.L.e . . . . . . . . . . . . . . . . . . . . . . . . . . . . . . . . . . . . . . . . . . . . . . . . . Y J.6.~.~.",
"~.>.N.W . . . . . . . . . . . . . . . . . . . . . . . . . . . . . . . . . . . . . . . . . . . . . . . . . Z.n.8.~.~.",
"~.w.4.K.o . . . . . . . . . . . . . . . . . . . . . . . . . . . . . . . . . . . . . . . . . . . . . . . y K.6.~.~.~.",
"~.~.8.N.! . . . . . . . . . . . . . . . . . . . . . . . . . . . . . . . . . . . . . . . . . . . . . . . B.l.t.~.~.~.",
"~.~.w.1.G.8 . . . . . . . . . . . . . . . . . . . . . . . . . . . . . . . . . . . . . . . . . . . . . s G.;.~.~.~.~.",
"~.~.~.e.g.b.. . . . . . . . . . . . . . . . . . . . . . . . . . . . . . . . . . . . . . . . . . . . 8 G.6.r.~.~.~.~.",
"~.~.~.~.7.M.K . . . . . . . . . . . . . . . . . . . . . . . . . . . . . . . . . . . . . . . . . . 8 J.k.7.~.~.~.~.~.",
"~.~.~.~.p.,.D.D . . . . . . . . . . . . . . . . . . . . . . . . . . . . . . . . . . . . . . . . o F.k.7.~.~.~.~.~.~.",
"~.~.~.~.~.i.>.z.J . . . . . . . . . . . . . . . . . . . . . . . . . . . . . . . . . . . . . . 8 N.g.7.a.~.~.~.~.~.~.",
"~.~.~.~.~.~.i.%.2.D.8 . . . . . . . . . . . . . . . . . . . . . . . . . . . . . . . . . . . i D.1.&.p.~.~.~.~.~.~.~.",
"~.~.~.~.~.~.~.p.0.;.c.I 8       . . .   . . . . . . . . . . . . . . . . . . . .         y v.x.7 q.~.~.~.~.~.~.~.~.~.",
"~.~.~.~.~.~.~.~.~.u.%.<.z.P a 8         . . . .         .     .       .           8 A k.x.;.>.p.~.~.~.~.~.~.~.~.~.~.",
"~.~.~.~.~.~.~.~.~.~.~.u.%.4 ;.j.g.5.U K P P P P P P P P P P P P P P P P P P U k.x.j.<.*.&.y.~.~.~.~.~.~.~.~.~.~.~.~.",
"~.~.~.~.~.~.~.~.~.~.~.~.~.s.u.7.%.6 7 4 4 4 4 5 5 5 4 5 5 4 4 5 4 4 4 4 4 4 6 3 $.&.u.a.~.~.~.~.~.~.~.~.~.~.~.~.~.~.",
"~.~.~.~.~.~.~.~.~.~.~.~.~.~.~.~.~.U.f.p.p.p.p.p.p.p.p.p.p.p.p.p.p.p.p.p.p.p.a.d.~.~.~.~.~.~.~.~.~.~.~.~.~.~.~.~.~.~.",
"~.~.~.~.~.~.~.~.~.~.~.~.~.~.~.~.~.~.~.~.~.~.~.~.~.~.~.~.~.~.~.~.~.~.~.~.~.~.~.~.~.~.~.~.~.~.~.~.~.~.~.~.~.~.~.~.~.~."
};
