/* XPM */
static char *a61291097df84a51806d23739d0d385beRzzzSQHUJubryEl[] = {
/* columns rows colors chars-per-pixel */
"53 62 217 2 ",
"   c None",
".  c black",
"X  c #0D010C",
"o  c #101010",
"O  c #37112F",
"+  c #400300",
"@  c #4C0602",
"#  c #590B07",
"$  c #4A160C",
"%  c #640D09",
"&  c #6D100C",
"*  c #74150E",
"=  c #6F1612",
"-  c #7A1611",
";  c #711B17",
":  c #7D1A15",
">  c #721E1A",
",  c #771815",
"<  c #73221E",
"1  c #7B221D",
"2  c #782211",
"3  c #713714",
"4  c #791924",
"5  c #742421",
"6  c #7B2622",
"7  c #512C1D",
"8  c #794518",
"9  c #550D4E",
"0  c #701067",
"q  c #484848",
"w  c #5C7C6C",
"e  c #841D18",
"r  c #84221D",
"t  c #872519",
"y  c #8F331B",
"u  c #842622",
"i  c #8B2621",
"p  c #842824",
"a  c #8A2924",
"s  c #8F2529",
"d  c #89501C",
"f  c #AE5622",
"g  c #936423",
"h  c #8F7135",
"j  c #AC6C28",
"k  c #8C5D20",
"l  c #CB752D",
"z  c #932B53",
"x  c #8B2746",
"c  c #9D3167",
"v  c #A33773",
"b  c #837946",
"n  c #E57C57",
"m  c #D15775",
"M  c #DB6B65",
"N  c #D46E67",
"B  c #6A886C",
"V  c #6B8B6C",
"C  c #AF882F",
"Z  c #E99839",
"A  c #F99E35",
"S  c #F99F39",
"D  c #F9A333",
"F  c #F9A33B",
"G  c #FAAB3A",
"H  c #F8A936",
"J  c #FBB33C",
"K  c #FDB638",
"L  c #EDA83E",
"P  c #D19435",
"I  c #FFC23E",
"U  c #91894A",
"Y  c #BF925A",
"T  c #A58A6A",
"R  c #B29365",
"E  c #989A7B",
"W  c #C89656",
"Q  c #DC9747",
"!  c #F39643",
"~  c #EA8C4F",
"^  c #DFA346",
"/  c #EFB64A",
"(  c #C7B063",
")  c #1E7BA3",
"_  c #2B79B6",
"`  c #2A7996",
"'  c #4D7DAB",
"]  c #167AD6",
"[  c #1778D5",
"{  c #2D7CC4",
"}  c #B8269C",
"|  c #B7368C",
" . c #BA0CA6",
".. c #BE0BA9",
"X. c #B70EA4",
"o. c #B714A5",
"O. c #B913A6",
"+. c #B51BA5",
"@. c #BC14AA",
"#. c #BB1BAB",
"$. c #B71AA7",
"%. c #AE1FA1",
"&. c #B524A7",
"*. c #BB23AC",
"=. c #BA2BAC",
"-. c #B62AA8",
";. c #B934AD",
":. c #BA3AAE",
">. c #BF2AB1",
",. c #BE34B1",
"<. c #BC3CB0",
"1. c #9A168D",
"2. c #C33A8D",
"3. c #C20BAD",
"4. c #C112AE",
"5. c #C01AAF",
"6. c #C60DB1",
"7. c #C80FB3",
"8. c #C613B2",
"9. c #CA11B6",
"0. c #C51CB4",
"q. c #CE15BA",
"w. c #CC1CBA",
"e. c #C91AB7",
"r. c #D017BD",
"t. c #D219BE",
"y. c #C322B3",
"u. c #C32BB4",
"i. c #CC21BB",
"p. c #CB29BC",
"a. c #C72BB8",
"s. c #CA33BC",
"d. c #C539B8",
"f. c #D021BF",
"g. c #B54397",
"h. c #BA4F85",
"j. c #BE42B3",
"k. c #AB40A3",
"l. c #C144B6",
"z. c #C14AB6",
"x. c #C945BD",
"c. c #C44DBA",
"v. c #C647BB",
"b. c #C653BC",
"n. c #C857BF",
"m. c #C74483",
"M. c #D51BC2",
"N. c #D81FC6",
"B. c #DB21C9",
"V. c #D423C3",
"C. c #CC4BC1",
"Z. c #CB5BC2",
"A. c #CA53C0",
"S. c #DC46CD",
"D. c #CC60C4",
"F. c #34889D",
"G. c #2886A8",
"H. c #2A9CAF",
"J. c #2793AB",
"K. c #3692B1",
"L. c #35A3B7",
"P. c #489592",
"I. c #6D8795",
"U. c #4698B5",
"Y. c #528BAD",
"T. c #48ABBB",
"R. c #56A7B5",
"E. c #78B0A7",
"W. c #6396A8",
"Q. c #1A84D9",
"!. c #1D8CDD",
"~. c #1F92DE",
"^. c #2789DB",
"/. c #2593DD",
"(. c #3491D2",
"). c #2EB0CE",
"_. c #229BE2",
"`. c #2799E1",
"'. c #379AE1",
"]. c #25A3E5",
"[. c #29ACE9",
"{. c #2CA5E5",
"}. c #39A8E6",
"|. c #2CB6EC",
" X c #2EBBEE",
".X c #38B9ED",
"XX c #4896DE",
"oX c #4DB0CE",
"OX c #66B9C5",
"+X c #499DE1",
"@X c #44AAE6",
"#X c #48A7E5",
"$X c #58A8E5",
"%X c #49B7EB",
"&X c #57B8EB",
"*X c #62B8EA",
"=X c #36C7F3",
"-X c #3CD7F9",
";X c #3CE0FC",
":X c #47C3DB",
">X c #66C6D1",
",X c #47C5F2",
"<X c #58C8F2",
"1X c #4AD6F8",
"2X c #57D8F7",
"3X c #51C8ED",
"4X c #64C3ED",
"5X c #68CAF2",
"6X c #66D5F6",
"7X c #6CD8F3",
"8X c #4FE3FB",
"9X c #6BE2FB",
"0X c #889084",
"qX c #8DAD92",
"wX c #96CFA4",
"eX c #DBCADA",
"rX c white",
/* pixels */
"                                                  & & & & &                                               ",
"                                            & & & & & & & & & & & &                                       ",
"                                      & & & & = ; > > > > > ; = & & & &                                   ",
"                                  & & = = > > > < < < < < < < < > > = & &                                 ",
"                                & & ; > > < < < < < < < < < < < < < > ; = & &                             ",
"                              & = > < < < < < < 5 5 5 5 5 5 5 < < < < < > = & &                           ",
"                            & ; > < < < < 5 5 5 5 5 5 5 5 5 5 5 5 5 < < < > ; & &                         ",
"                          = ; > < < < 5 5 5 5 5 5 5 5 5 5 5 5 5 5 5 5 < < < > ; & &                       ",
"                        = > > < < < < < 5 5 5 5 5 5 5 5 5 5 5 5 5 5 5 5 < < < > ; & &                     ",
"                      = > 1 1 1 6 6 6 6 6 6 6 6 6 6 6 6 6 6 6 6 6 6 6 6 6 6 6 1 < , &                     ",
"                    = : 1 1 6 u u u u u u p u p p p p p p p p p p a p p p p u u 1 1 , &                   ",
"                  * : 1 r r u u u u u u u u u u u p p a a a a a a a a a a a a u u r : = &                 ",
"                * : : r r r u u u u u u i r i t t i i i i i i i a a a a a a a i i r r : &                 ",
"                - : e e r r r r e e - * & % % % # # # # % & & - - e e t i i i i i r r e * &               ",
"              * - : : : - & # # @ + + + + + + + + + + + + + + + + + @ @ % & - e r e e : - & &             ",
"              * t y y 3 8 8 d d g g h b b b h g g g k d 8 8 3 7 O 7 $ $ $ + + + @ # & * - * &             ",
"            t / L ^ P C U V V P.K.H.L.L.T.T.H.P.U C C C C B G.G.G.G.G.J.F.P.B U h j j j P L * &           ",
"            l J J / wX8X1X:XoXT.R.OXOXOXOXT.H.H.H.U C C ` ) ) G.G.G.K.K.U.U.R.U.K.R.E J J / f &           ",
"          t L J wX;X8X8X8X8X8X9X7X>X>XOXT.H.H.H.H.P.C B ) ) ) G.G.K.K.U.U.oX&X4X6X7X=X:X/ J L *           ",
"        G Z J ( -X-X1X1X2X2X2X6X9X9X9X2X,X).).L.H.J.C w ) ) G.G.K.(.oX%X<X<X5X5X5X<X.X XOXJ J f -         ",
"        G G J >X-X1X1X1X2X2X2X6X7X7X2X2X=X=X=X=X=X=XI E.].{.}.}.@X%X%X&X&X4X4X5X3X<X|.|.|./ J Z F F       ",
"      F G G / =X=X,X,X3X<X<X6X6X7X6X=X<X=X=X=X=X=X%XK qX_.{.}.}.@X%X&X&X&X4X4X%X%X.X[.|.|.qXJ G H F       ",
"      F H G E..X%X,X,X3X<X<X5X5X5X.X<X.X|.|.|.|.|.E.K ( /.`.}.@X@X%X&X&X&X*X&X}.&X[.[.[.[.oXK H H F       ",
"      Z H H oX.X%X%X%X&X4X4X4X4X|.&X%X[.[.[.[.[.[.( K L (.`.'.#X#X$X$X&X*X&X{.&X}.].].].].[.( H D F F     ",
"      d D ( }.@X@X%X&X&X&X*X*X{.}.%X{.].].].].].E.H H H 0X!.+X#X#X$X$X*X&X`.@X@X_._._._.].].qXH D F Z     ",
"    & l D qX}.@X@X#X&X&X*X*X'.'.@X}._._._._._.(.^ D D D ^ ^.'.#X$X$X$X$X/.'.#X'./._._._._._.R.D D f #     ",
"    * F D W.'.#X#X$X$X$X*X'./.'.'./.~.~.!.!.!.W D D D D D 0XQ.+X$X$X$X^.^.'.'./.!.!.~.~.~./.(.D D 2 &     ",
"    y F A Y.^.+X+X$X$X$X'.Q.^.^.^.Q.Q.Q.Q.^.R A D D A A A Z { ^.$X$X^.Q.^.^.^.Q.!.!.!.!.!.!.~.D D y & &   ",
"  & 2 Z A E ] ^.XX$X$X(.] ] ] ^.] ] ] { 0XZ A ! M 2.} 2.m A Q I.XX^.] ] ^.^.] Q.Q.Q.Q.Q.Q.Q.I.A D f & &   ",
"  & % N F A 0X_ [ [ [ [ [ [ [ { ' 0XW A S n m } #.i.V.V.0.2.! A W I._ [ [ [ [ ] ] ] ] ] Q.Y.Z A F j & &   ",
"  & 4 j.N F A A W R T T T Y Q A A A ! M 2.+.e.V.B.B.B.B.B.w.} M S A A W R 0XI.Y.' I.I.E Z A A A F l & &   ",
"& & s C.;.| ~ F S A A A A A S ! n m } #.e.N.B.B.B.B.B.B.B.B.V.$.2.M ! S A A A A A A A A A A F F ~ 1 & &   ",
"& & z C.s.>.%.| m M M M M m | +.$.0.M.N.N.N.0 O 9 0 0 0 9 9 B.B.w.#.+.| m.m M n n n n n M M N h.k.4 & & & ",
"& & c C.s.p.i.e.#.$.$.$.$.0.e.M.M.M.M.M.M.M.1.. . . . . . 9 N.N.N.N.M.w.e.#.$.$.$.$.$.$.+.&.-.<.C.4 & & & ",
"& & c x.s.p.i.t.M.M.M.M.M.M.M.M.M.M.M.M.M.M.M.O o q q o X #.M.M.N.N.N.N.N.N.N.N.N.N.B.V.V.V.s.s.C.4 & & & ",
"& & c x.s.p.i.w.M.M.M.M.M.M.M.M.M.M.M.M.M.M.M.$.eXrXrXeX1.M.M.M.M.M.M.M.M.M.M.M.M.M.M.V.V.p.s.s.C.4 & & & ",
"& & c x.s.p.i.w.t.t.M.M.M.M.M.M.M.M.M.M.M.M.M.M.M.S.S.V.M.M.M.M.M.M.M.M.M.M.M.M.M.M.M.M.f.p.s.s.C., & & & ",
"& & c x.s.p.i.w.t.t.t.t.t.t.t.t.t.t.t.t.M.t.M.M.M.M.M.M.M.M.M.M.M.M.M.M.M.M.M.M.M.M.M.M.i.p.s.x.A.& & &   ",
"& & z x.s.u.w.w.q.q.r.r.r.r.r.r.t.t.t.t.t.t.t.t.t.t.t.t.t.t.t.M.t.t.M.M.M.M.M.M.M.M.t.t.i.p.s.x.g.& & &   ",
"& & z x.d.u.y.e.q.q.q.q.q.q.q.q.q.r.r.r.q.r.r.r.r.t.t.t.t.t.t.t.t.t.t.t.t.t.t.t.t.t.t.w.i.p.s.x.g.& & &   ",
"  & 4 b.d.u.y.e.q.q.q.q.q.q.q.q.q.q.q.q.q.q.q.q.q.q.q.r.q.r.r.r.r.r.r.r.t.r.t.t.r.t.q.w.i.a.s.x.v & & &   ",
"  & , z.d.u.y.e.9.9.9.q.q.q.q.q.q.q.q.q.q.q.q.q.q.q.q.q.q.q.q.q.q.q.q.q.q.q.r.q.q.q.w.w.i.u.d.x.x & & &   ",
"    & g.l.u.y.0.8.9.9.q.q.q.9.q.q.q.q.q.q.q.q.q.q.q.q.q.q.q.q.q.q.q.q.q.q.q.q.q.q.q.e.e.y.u.d.A.4 & &     ",
"      c v.d.u.0.8.8.9.9.9.9.9.9.9.9.9.9.9.9.9.q.9.9.9.q.q.q.q.q.q.q.q.q.q.q.q.q.q.q.e.e.u.d.v.g.& & &     ",
"        b.d.>.y.0.8.8.9.9.9.9.9.9.9.9.9.9.9.9.9.9.9.9.9.9.9.9.9.9.9.9.9.9.9.9.q.9.9.e.y.u.d.c.z & &       ",
"        A.l.,.*.5.4.8.8.7.7.7.7.7.7.9.9.9.9.9.9.9.9.9.9.9.9.9.9.9.9.9.9.9.9.9.9.9.8.0.y.u.l.A.4 &         ",
"          c.d.>.*.5.4.3.6.6.6.6.6.6.6.6.6.6.6.7.7.7.9.7.9.9.9.9.9.9.9.9.9.9.8.8.8.0.y.u.d.v.| &           ",
"          A.l.,.*.#.@.4.3.3.6.6.6.6.6.6.6.6.6.6.6.6.6.6.6.7.6.6.7.7.7.7.7.8.8.8.8.5.>.,.l.b.              ",
"            c.d.=.*.#.@.3.3.3.3.3.3.6.6.6.6.6.6.6.6.6.6.6.6.6.6.6.6.6.6.6.6.4.4.5.*.>.d.v.Z.              ",
"            Z.c.<.=.#.@.@.....3.3.3.3.3.3.3.3.6.3.6.3.6.6.6.6.6.6.6.6.6.3.4.4.@.#.=.,.l.A.                ",
"              n.l.,.=.#.@.@.......3.3.3.3.3.3.3.3.3.3.3.3.3.3.3.3.3.3.3...@.@.#.*.,.l.b.                  ",
"                n.l.,.=.&.$.O. .......3.3.3.3.3.3.3.3.3.3.3.3.3.3.3.....@.@.#.=.;.d.c.Z.                  ",
"                  n.l.:.=.&.$.o.O. . ...............................@.@.$.#.=.;.j.c.Z.                    ",
"                    n.z.<.;.-.+.$.o.O. . . . . . . . . . . . . .O.$.$.#.&.=.;.j.b.Z.                      ",
"                      n.c.j.;.=.&.&.$.o.o.o.X.X. .X.X. .O.o.o.o.$.+.&.=.;.<.l.b.Z.                        ",
"                        Z.b.z.<.;.-.-.&.+.+.$.$.$.$.$.$.$.$.+.&.&.-.;.:.j.c.Z.                            ",
"                            Z.b.z.j.:.;.=.-.-.&.&.&.&.&.-.-.-.;.;.:.j.c.n.Z.                              ",
"                                Z.n.c.z.j.<.:.:.;.;.;.;.:.:.<.j.z.b.n.Z.                                  ",
"                                      Z.n.n.b.c.c.z.c.c.c.b.n.n.Z.                                        ",
"                                              D.D.D.Z.D.D.                                                ",
"                                                                                                          ",
"                                                                                                          "
};
