/* XPM */
static char *result[] = {
/* columns rows colors chars-per-pixel */
"60 61 145 2 ",
"   c #2672B4",
".  c #2976B4",
"X  c #2D79B3",
"o  c #2273BD",
"O  c #2875B8",
"+  c #2D7DB8",
"@  c #307DB6",
"#  c #1C78CE",
"$  c #006BD6",
"%  c #006EDB",
"&  c #0B72D4",
"*  c #0372DD",
"=  c #0A75DB",
"-  c #1475D1",
";  c #1C7CD4",
":  c #117BD9",
">  c #2577C2",
",  c #257AC7",
"<  c #287AC2",
"1  c #257BCA",
"2  c #257ED1",
"3  c #0074E4",
"4  c #0077EA",
"5  c #0078EB",
"6  c #0B7FE9",
"7  c #117FE6",
"8  c #2D81BE",
"9  c #3682B5",
"0  c #3284BC",
"q  c #3887BE",
"w  c #3D8ABA",
"e  c #4292BE",
"r  c #2F84C5",
"t  c #2B83CC",
"y  c #2E89CD",
"u  c #3082C3",
"i  c #348AC3",
"p  c #398CC2",
"a  c #328BCC",
"s  c #388ECB",
"d  c #3D92C3",
"f  c #3893CC",
"g  c #3F99CB",
"h  c #2682D6",
"j  c #2D87D4",
"k  c #2689D4",
"l  c #2586DE",
"z  c #2887DF",
"x  c #2D89DB",
"c  c #3798D7",
"v  c #3E9DD3",
"b  c #379EDF",
"n  c #3F9ADA",
"m  c #0B82ED",
"M  c #1485E5",
"N  c #1087EE",
"B  c #1189EF",
"V  c #1F89EA",
"C  c #0E83F0",
"Z  c #1085F1",
"A  c #158BF1",
"S  c #1A8CF3",
"D  c #2689E3",
"F  c #2C8DE2",
"G  c #2B8EE8",
"H  c #2D92ED",
"J  c #269BEE",
"K  c #3493E2",
"L  c #3A98E1",
"P  c #3296EB",
"I  c #359AEB",
"U  c #2396F7",
"Y  c #2F97F3",
"T  c #249AF3",
"R  c #2F98F4",
"E  c #2797FA",
"W  c #2E9EFB",
"Q  c #329AF5",
"!  c #329EFC",
"~  c #3AA3E2",
"^  c #32A2EA",
"/  c #35ABF7",
"(  c #38AFF7",
")  c #35A3FD",
"_  c #38A6FC",
"`  c #37A8FD",
"'  c #3CABFE",
"]  c #3FB0F0",
"[  c #3EB2FC",
"{  c #4396C1",
"}  c #469CC6",
"|  c #4B9DC4",
" . c #4093C8",
".. c #469CCB",
"X. c #419CD4",
"o. c #419DD9",
"O. c #4FA1C5",
"+. c #4DA5CC",
"@. c #50A3C5",
"#. c #52A5C8",
"$. c #59AFCC",
"%. c #5BB1CE",
"&. c #45A3D3",
"*. c #4AA1D1",
"=. c #44A7DA",
"-. c #46A9DB",
";. c #48ADDE",
":. c #52ADD4",
">. c #51B0D7",
",. c #5CB5D3",
"<. c #5FB9D4",
"1. c #51B0D8",
"2. c #62BBD4",
"3. c #40A8E4",
"4. c #48AFE2",
"5. c #4CB4E5",
"6. c #4EB8E9",
"7. c #51B6E2",
"8. c #51BDED",
"9. c #40AFFE",
"0. c #43B4FE",
"q. c #46B9FC",
"w. c #4ABCFE",
"e. c #66C2DA",
"r. c #69C3D9",
"t. c #6DCADE",
"y. c #54C0EF",
"u. c #4DC1F7",
"i. c #4FC3FB",
"p. c #55C5F4",
"a. c #52C5FD",
"s. c #56C9FD",
"d. c #59CDFD",
"f. c #5BD1FF",
"g. c #74D3E3",
"h. c #78D7E6",
"j. c #77D8E6",
"k. c #78DCE6",
"l. c #77D8EB",
"z. c #7CDFEA",
"x. c #7EE1EB",
"c. c #81E5EE",
"v. c #85EAF2",
"b. c #88EFF4",
"n. c None",
/* pixels */
"n.n.n.n.n.n.n.n.n.n.n.n.n.n.a.a.i.i.w.i.w.w.w.w.q.w.q.q.q.q.0.0.0.0.0.9.9.9.' ' 9.9.' ' ' _ n.n.n.n.n.n.n.n.n.n.n.n.n.n.",
"n.n.n.n.n.n.n.n.n.n.n.a.a.a.a.s.a.a.a.a.i.i.a.w.w.w.w.q.q.w.q.q.0.q.0.0.0.0.0.9.9.' ' ' ' _ _ _ _ n.n.n.n.n.n.n.n.n.n.n.",
"n.n.n.n.n.n.n.n.n.s.s.s.s.a.s.a.a.a.i.w.i.w.w.i.w.w.w.w.q.q.w.0.0.0.0.9.0.9.9.9.0.' ' 9.' ' ' _ _ ` _ n.n.n.n.n.n.n.n.n.",
"n.n.n.n.n.n.n.n.s.s.s.s.s.s.a.a.a.w.q.q.q.q.0.0.q.0.0.0.0.9.9.9.9.' ' _ ' ' _ ' ` _ ' ' ' ' _ ' _ _ ) ! n.n.n.n.n.n.n.n.",
"n.n.n.n.n.n.p.s.s.d.d.s.s.[ T A 6 5 5 5 5 5 5 5 5 5 5 5 5 5 5 5 5 5 5 5 5 5 5 5 5 5 5 6 C S W ` _ ` _ ) _ n.n.n.n.n.n.n.",
"n.n.n.n.n.p.s.d.s.s.s./ m 5 4 5 5 5 5 5 5 5 5 5 5 5 5 5 5 5 5 5 5 5 5 5 5 5 5 5 5 5 5 5 5 5 5 6 U _ ` ) ) Q ! n.n.n.n.n.",
"n.n.n.n.y.s.d.d.d.i.A 5 5 5 5 5 5 5 5 5 5 5 5 5 5 5 5 5 5 5 5 5 5 5 5 5 5 5 5 5 5 5 5 5 5 5 5 5 5 A W ` _ ! Q n.n.n.n.n.",
"n.n.n.n.p.d.d.d.q.m 5 5 5 5 5 5 5 5 5 5 5 5 5 5 5 5 5 5 5 5 5 5 5 5 5 5 5 5 5 5 5 5 5 5 5 5 5 5 5 5 6 ! ) _ _ Q n.n.n.n.",
"n.n.n.y.s.f.d.u.5 5 5 5 5 5 5 5 5 5 5 5 5 5 5 5 5 5 5 5 5 5 5 5 5 5 5 5 5 5 5 5 5 5 5 5 5 5 5 5 5 5 5 6 W ) ! Q Q n.n.n.",
"n.n.7.s.d.f.u.m 5 5 5 5 5 5 5 5 5 5 5 5 5 5 5 5 5 5 5 5 5 5 5 5 5 5 5 5 5 5 5 5 5 5 5 5 5 5 5 5 5 5 5 5 6 ! ) ! R I n.n.",
"n.n.y.s.d.d.m 5 5 5 5 5 5 5 5 5 5 5 5 5 5 5 5 5 5 5 5 4 5 5 5 4 5 5 5 5 5 5 5 5 5 5 5 5 5 5 5 5 5 5 5 5 5 C ) ! Q P n.n.",
"n.1.y.p.f.[ 5 5 5 5 5 5 5 5 5 5 5 5 5 5 5 5 5 5 5 5 5 5 5 5 5 5 5 5 5 5 5 5 5 5 5 5 5 5 5 5 5 5 5 5 5 5 5 5 E ! ! P L n.",
"n.7.y.d.f.m 5 5 5 5 5 5 5 5 5 5 5 5 5 5 5 5 5 5 5 5 4 5 5 5 5 5 5 5 5 5 5 5 5 5 5 5 5 5 5 5 5 5 5 5 5 5 5 5 Z ! ! H L n.",
"n.6.p.d.q.4 5 5 5 5 5 5 5 5 5 5 5 5 5 5 5 5 5 5 5 5 5 5 5 5 5 5 5 5 5 5 5 5 5 5 5 5 5 5 5 5 5 5 5 5 5 5 5 5 5 E ! Y K n.",
"1.6.p.f.J 4 4 5 5 5 5 5 5 5 5 5 5 5 5 5 5 5 5 5 5 5 5 5 5 5 5 5 5 5 5 5 5 5 5 5 5 5 5 5 5 5 5 5 5 5 5 5 5 5 5 S ! Y K n.",
"1.7.p.f.B 4 5 5 5 5 5 5 5 5 5 5 5 5 5 5 5 4 5 5 5 5 5 5 5 5 5 5 5 5 5 5 5 5 5 5 5 5 5 5 5 5 5 5 5 5 5 5 5 5 5 6 ! Y F n ",
"1.5.p.d.5 5 5 5 5 5 5 5 5 5 5 5 5 5 5 5 5 5 5 5 5 5 5 5 5 5 5 5 5 5 5 5 5 5 5 5 5 5 5 5 5 5 5 5 5 5 5 5 5 5 5 6 ! Y F o.",
"1.5.p.a.5 5 5 5 5 5 5 5 5 5 5 5 5 5 5 5 5 5 5 5 5 5 5 5 5 5 5 5 5 5 5 5 5 5 5 5 5 5 5 5 5 5 5 5 5 5 5 5 5 5 5 5 ! Q F o.",
"1.5.p.a.5 5 5 5 5 5 5 5 5 5 5 5 5 5 5 5 5 5 5 5 5 5 5 5 5 5 5 5 5 5 5 5 5 5 5 5 5 5 5 5 5 5 5 5 5 5 5 5 5 5 5 5 ! Q F o.",
"1.5.p.w.5 5 5 5 5 5 5 5 5 5 5 5 5 5 5 5 5 5 5 5 5 5 5 5 5 5 5 5 5 5 5 5 5 5 5 5 5 5 5 5 5 5 5 5 5 5 5 5 5 5 5 5 ! Y F o.",
"1.5.p.a.5 5 5 5 5 5 5 5 5 5 5 5 5 5 5 5 5 5 5 5 5 5 5 5 5 5 5 5 5 5 5 5 5 5 5 5 5 5 5 5 5 5 5 5 5 5 5 5 5 5 5 5 ! Y F o.",
"1.5.p.a.5 5 5 5 5 5 5 5 5 5 5 5 5 5 5 5 5 5 5 5 5 5 5 5 5 5 5 5 5 5 5 5 5 5 5 5 5 5 5 5 5 5 5 5 5 5 5 5 5 5 5 5 ! Y F o.",
"1.5.p.i.5 5 5 5 5 5 5 5 5 5 5 5 5 5 5 5 5 5 5 5 5 5 5 5 5 5 5 5 5 5 5 5 5 5 5 5 5 5 5 5 5 5 5 5 5 5 5 5 5 5 5 5 ! Y F o.",
"1.5.p.i.5 5 5 5 5 5 5 5 5 5 5 5 5 5 5 5 5 5 5 5 5 5 5 5 5 5 5 5 5 5 5 5 5 5 5 5 5 5 5 5 5 5 5 5 5 5 5 5 5 5 5 5 ! Q F o.",
"1.5.p.u.5 5 5 5 5 5 5 5 5 5 5 5 5 5 5 5 5 5 5 5 5 5 5 5 5 5 5 5 5 5 5 5 5 5 5 5 5 5 5 5 5 5 5 5 5 5 5 5 5 5 5 5 ! Y F o.",
"1.5.p.i.5 5 5 5 5 5 5 5 5 5 5 5 5 5 5 5 5 5 5 5 5 5 5 5 5 5 5 5 5 5 5 5 5 5 5 5 5 5 5 5 5 5 5 5 5 5 5 5 5 5 5 5 ! Q F o.",
"1.5.p.i.5 5 5 5 5 5 5 5 5 5 5 5 5 5 5 5 5 5 5 5 5 5 5 5 5 5 5 5 5 5 5 5 5 5 5 5 5 5 5 5 5 5 5 5 5 5 5 5 5 5 5 5 ! Y F o.",
"1.5.p.a.5 5 5 5 5 5 5 5 5 5 5 5 5 5 5 5 5 5 5 5 5 5 5 5 5 5 5 5 5 5 5 5 5 5 5 5 5 5 5 5 5 5 5 5 5 5 5 5 5 5 5 5 ! Y F o.",
"1.5.p.u.5 5 5 5 5 5 5 5 5 5 5 5 5 5 5 5 5 5 5 5 5 5 5 5 5 5 5 5 5 5 5 5 5 5 5 5 5 5 5 5 5 5 5 5 5 5 5 5 5 5 5 5 ! Q F o.",
"1.6.p.a.5 5 5 5 5 5 5 5 5 5 5 5 5 5 5 5 5 5 5 5 5 5 5 5 5 5 5 5 5 5 5 5 5 5 5 5 5 5 5 5 5 5 5 5 5 5 5 5 5 5 5 5 ! Y F o.",
"1.5.p.i.5 5 5 5 5 5 5 5 5 5 5 5 5 5 5 5 5 5 5 5 5 5 5 5 5 5 5 5 5 5 5 5 5 5 5 5 5 5 5 5 5 5 5 5 5 5 5 5 5 5 5 5 ! Y F o.",
"1.5.p.i.5 5 5 5 5 5 5 5 5 5 5 5 5 5 5 5 5 5 5 5 5 5 5 5 5 5 5 5 5 5 5 5 5 5 5 5 5 5 5 5 5 5 5 5 5 5 5 5 5 5 5 5 ! Q F o.",
"1.5.p.i.5 5 5 5 5 5 5 5 5 5 5 5 5 5 5 5 5 5 5 5 5 5 5 5 5 5 5 5 5 5 5 5 5 5 5 5 5 5 5 5 5 5 5 5 5 5 5 5 5 5 5 5 ! Y F o.",
"1.5.p.u.5 5 5 5 5 5 5 5 5 5 5 5 5 5 5 5 5 5 5 5 5 5 5 5 5 5 5 5 5 5 5 5 5 5 5 5 5 5 5 5 5 5 5 5 5 5 5 5 5 5 5 5 ! Y F o.",
"1.5.p.s.5 5 5 5 5 5 5 5 5 5 5 5 5 5 5 5 5 5 5 5 5 5 5 5 5 5 5 5 5 5 5 5 5 5 5 5 5 5 5 5 5 5 5 5 5 5 5 5 5 5 5 5 ! R F o.",
"1.5.p.i.5 5 5 5 5 5 5 5 5 5 5 5 5 5 5 5 5 5 5 5 5 5 5 5 5 5 5 5 5 5 5 5 5 5 5 5 5 5 5 5 5 5 5 5 5 5 5 5 5 5 5 5 ! R F o.",
"1.5.p.u.5 5 5 5 5 5 5 5 5 5 5 5 5 5 5 5 5 5 5 5 5 5 5 4 5 5 5 5 5 5 5 5 5 5 5 5 5 5 5 5 5 5 5 5 5 5 5 5 5 5 5 5 ! R F o.",
"1.5.p.i.5 5 5 5 5 5 5 5 5 5 5 5 5 5 5 5 5 5 5 5 5 5 5 5 5 5 5 5 5 5 5 5 5 5 5 5 5 5 5 5 5 5 5 5 5 5 5 5 5 5 5 5 ! Q D o.",
"1.5.p.i.5 5 5 5 5 5 5 5 5 5 5 5 5 5 5 5 5 5 5 5 5 5 5 5 5 5 5 5 5 5 5 5 5 5 5 5 5 5 5 5 5 5 5 5 5 5 5 5 5 5 5 5 ! Y F o.",
">.5.p.i.5 5 5 5 5 5 5 5 5 5 5 5 5 5 5 5 5 5 5 5 5 5 5 5 5 5 5 5 5 5 5 5 5 5 5 5 5 5 5 5 5 5 5 5 5 5 5 5 5 5 5 5 ! Y F o.",
":.;.p.i.5 5 5 5 5 5 5 5 5 5 5 5 5 5 5 5 5 5 5 5 5 5 5 5 5 5 5 5 5 5 5 5 5 5 5 5 5 5 5 5 5 5 5 5 5 5 5 5 5 5 5 5 ! Y F X.",
":.;.y.i.5 5 5 5 5 5 5 5 5 5 5 5 5 5 5 5 5 5 5 5 5 5 5 5 5 5 5 5 5 5 5 5 5 5 5 5 5 4 5 5 5 5 5 5 5 5 5 5 5 5 5 5 ! Y x X.",
":.-.8.u.5 5 5 5 5 5 5 5 5 5 5 5 5 5 5 5 5 5 5 5 5 5 5 5 5 5 5 5 5 5 5 5 5 5 5 5 5 5 5 5 5 5 5 5 5 5 5 5 5 5 5 5 Q G x X.",
">.&.6.s.5 5 5 5 5 5 5 5 5 5 5 5 5 5 5 5 5 5 5 5 5 5 5 5 5 5 5 5 5 5 5 5 5 5 5 5 5 5 5 5 5 5 5 5 5 5 5 5 5 5 5 5 Q G j *.",
",.&.;.p.m 4 4 5 5 5 5 5 5 5 5 5 5 5 5 5 5 5 5 5 5 5 5 5 5 5 5 5 5 5 5 5 5 5 5 5 5 4 5 5 5 5 5 5 5 5 5 5 5 5 5 6 Y D a +.",
"<.&.-.6.J 4 4 5 5 5 5 5 5 5 5 5 5 5 5 5 5 5 5 5 5 5 5 5 5 5 5 5 5 5 5 5 5 4 5 5 5 5 5 5 5 5 5 5 5 5 5 5 5 5 4 S G z s n.",
"n.+.&.5.] 4 5 5 5 5 5 5 5 5 5 5 5 5 5 5 5 5 5 5 5 5 5 5 5 5 5 5 5 5 5 5 5 5 5 5 5 5 5 5 5 5 5 5 5 5 5 5 5 5 4 Y F 2 ..n.",
"n.%.g =.8.m 5 5 5 5 5 5 5 5 5 5 5 5 5 5 5 5 5 5 5 5 5 5 5 5 5 5 5 5 5 5 5 5 5 5 5 5 5 5 5 5 5 5 5 5 5 5 4 4 7 H 2 t ,.n.",
"n.e.} g 4.^ 4 4 5 5 5 5 5 5 5 5 5 5 5 5 5 5 5 5 5 5 5 5 5 5 5 5 5 5 5 5 5 5 5 5 5 5 5 5 5 5 5 5 5 5 5 5 5 3 D D 1  .r.n.",
"n.n.%.d v 5.M 4 4 4 5 5 5 5 5 5 5 5 5 5 5 4 5 5 5 5 5 5 5 5 5 5 5 5 5 5 5 5 5 5 5 5 5 5 5 5 5 5 5 5 5 5 4 7 D 2 u :.n.n.",
"n.n.t.| d v 3.3 4 4 4 4 5 5 5 5 5 5 5 5 5 5 5 5 5 5 5 5 5 5 5 5 5 5 5 5 5 5 5 5 5 4 5 5 5 5 5 5 4 4 4 3 3 G 2 < } t.n.n.",
"n.n.n.e.e d X.~ * 3 4 4 5 5 5 5 5 5 5 5 5 5 5 5 5 5 5 5 5 5 5 5 5 5 5 5 5 5 5 5 5 5 5 5 5 5 5 5 4 4 3 3 D 2 > p e.n.n.n.",
"n.n.n.k.<.w p v b = 3 4 4 4 4 4 5 5 5 5 5 5 5 5 5 5 5 5 5 5 4 4 5 5 5 5 5 5 5 5 5 5 5 5 4 4 4 4 3 3 % l 2 > p 2.n.n.n.n.",
"n.n.n.n.x.<.w 0 f c M $ * 4 4 4 4 4 5 4 5 5 5 5 4 4 4 4 4 4 4 4 5 5 5 5 4 5 4 4 4 3 4 4 4 4 3 3 % = h 1 o q 2.h.n.n.n.n.",
"n.n.n.n.n.x.2.w 9 0 f k & $ * * 3 3 3 3 3 3 3 3 3 3 3 3 4 3 3 3 3 3 3 3 3 3 3 3 3 3 3 3 % % $ & 2 1 >   w <.l.n.n.n.n.n.",
"n.n.n.n.n.n.x.t.| 9 0 r a y ; & $ $ $ $ $ $ $ $ $ $ $ $ $ $ $ $ $ $ $ $ $ $ $ $ $ $ $ $ & - # , > o @ } r.x.n.n.n.n.n.n.",
"n.n.n.n.n.n.n.c.j.%.e 9 @ X 8 0 i i a s a a a y a y y y y y y y 2 t t t t t t t 2 t , , > o o   X e ,.h.n.n.n.n.n.n.n.n.",
"n.n.n.n.n.n.n.n.n.c.g.2.| e 9 X X X X X X X X X X X X X . X . . O O . .   .             X @ w | ,.g.c.n.n.n.n.n.n.n.n.n.",
"n.n.n.n.n.n.n.n.n.n.n.b.z.t.2.$.#.@.O.O.@.@.@.O.O.O.O.O.O.@.O.O.O.O.@.O.| @.@.@.@.| O.@.%.2.g.x.b.n.n.n.n.n.n.n.n.n.n.n.",
"n.n.n.n.n.n.n.n.n.n.n.n.n.n.b.v.v.c.c.c.c.c.c.c.c.c.c.c.c.c.c.c.c.c.c.c.c.c.c.c.c.c.c.v.v.b.n.n.n.n.n.n.n.n.n.n.n.n.n.n.",
"n.n.n.n.n.n.n.n.n.n.n.n.n.n.n.n.n.n.n.n.n.n.n.n.n.n.n.n.n.n.n.n.n.n.n.n.n.n.n.n.n.n.n.n.n.n.n.n.n.n.n.n.n.n.n.n.n.n.n.n."
};
